<svg width="28" height="34" viewBox="0 0 28 34" fill="none" xmlns="http://www.w3.org/2000/svg">
<path d="M14 18.6667C13.4926 18.6607 12.9955 18.8104 12.5757 19.0955C12.1559 19.3806 11.8336 19.7875 11.652 20.2613C11.4705 20.7352 11.4384 21.2533 11.5602 21.7459C11.6821 22.2386 11.9519 22.682 12.3333 23.0167V25.3333C12.3333 25.7754 12.5089 26.1993 12.8215 26.5118C13.134 26.8244 13.558 27 14 27C14.442 27 14.8659 26.8244 15.1785 26.5118C15.4911 26.1993 15.6667 25.7754 15.6667 25.3333V23.0167C16.0481 22.682 16.3179 22.2386 16.4397 21.7459C16.5616 21.2533 16.5295 20.7352 16.348 20.2613C16.1664 19.7875 15.844 19.3806 15.4243 19.0955C15.0045 18.8104 14.5074 18.6607 14 18.6667ZM22.3333 12V8.66667C22.3333 6.45653 21.4554 4.33691 19.8926 2.77411C18.3297 1.21131 16.2101 0.333332 14 0.333332C11.7899 0.333332 9.67024 1.21131 8.10744 2.77411C6.54464 4.33691 5.66666 6.45653 5.66666 8.66667V12C4.34058 12 3.06881 12.5268 2.13113 13.4645C1.19345 14.4021 0.666664 15.6739 0.666664 17V28.6667C0.666664 29.9928 1.19345 31.2645 2.13113 32.2022C3.06881 33.1399 4.34058 33.6667 5.66666 33.6667H22.3333C23.6594 33.6667 24.9312 33.1399 25.8689 32.2022C26.8065 31.2645 27.3333 29.9928 27.3333 28.6667V17C27.3333 15.6739 26.8065 14.4021 25.8689 13.4645C24.9312 12.5268 23.6594 12 22.3333 12ZM9 8.66667C9 7.34058 9.52678 6.06881 10.4645 5.13113C11.4021 4.19345 12.6739 3.66667 14 3.66667C15.3261 3.66667 16.5978 4.19345 17.5355 5.13113C18.4732 6.06881 19 7.34058 19 8.66667V12H9V8.66667ZM24 28.6667C24 29.1087 23.8244 29.5326 23.5118 29.8452C23.1993 30.1577 22.7754 30.3333 22.3333 30.3333H5.66666C5.22464 30.3333 4.80071 30.1577 4.48815 29.8452C4.17559 29.5326 4 29.1087 4 28.6667V17C4 16.558 4.17559 16.134 4.48815 15.8215C4.80071 15.5089 5.22464 15.3333 5.66666 15.3333H22.3333C22.7754 15.3333 23.1993 15.5089 23.5118 15.8215C23.8244 16.134 24 16.558 24 17V28.6667Z" fill="white"/>
</svg>
