<?xml version="1.0" encoding="UTF-8"?>
<svg xmlns="http://www.w3.org/2000/svg" xmlns:xlink="http://www.w3.org/1999/xlink" width="20px" height="20px" viewBox="0 0 20 20" version="1.1">
<g id="surface1">
<path style=" stroke:none;fill-rule:nonzero;fill:rgb(14.901961%,51.764706%,96.862745%);fill-opacity:1;" d="M 8.332031 15 C 8.554688 15 8.765625 14.914062 8.921875 14.757812 C 9.078125 14.601562 9.167969 14.386719 9.167969 14.167969 L 9.167969 9.167969 C 9.167969 8.945312 9.078125 8.734375 8.921875 8.578125 C 8.765625 8.421875 8.554688 8.332031 8.332031 8.332031 C 8.113281 8.332031 7.898438 8.421875 7.742188 8.578125 C 7.585938 8.734375 7.5 8.945312 7.5 9.167969 L 7.5 14.167969 C 7.5 14.386719 7.585938 14.601562 7.742188 14.757812 C 7.898438 14.914062 8.113281 15 8.332031 15 Z M 16.667969 5 L 13.332031 5 L 13.332031 4.167969 C 13.332031 3.503906 13.070312 2.867188 12.601562 2.398438 C 12.132812 1.929688 11.496094 1.667969 10.832031 1.667969 L 9.167969 1.667969 C 8.503906 1.667969 7.867188 1.929688 7.398438 2.398438 C 6.929688 2.867188 6.667969 3.503906 6.667969 4.167969 L 6.667969 5 L 3.332031 5 C 3.113281 5 2.898438 5.085938 2.742188 5.242188 C 2.585938 5.398438 2.5 5.613281 2.5 5.832031 C 2.5 6.054688 2.585938 6.265625 2.742188 6.421875 C 2.898438 6.578125 3.113281 6.667969 3.332031 6.667969 L 4.167969 6.667969 L 4.167969 15.832031 C 4.167969 16.496094 4.429688 17.132812 4.898438 17.601562 C 5.367188 18.070312 6.003906 18.332031 6.667969 18.332031 L 13.332031 18.332031 C 13.996094 18.332031 14.632812 18.070312 15.101562 17.601562 C 15.570312 17.132812 15.832031 16.496094 15.832031 15.832031 L 15.832031 6.667969 L 16.667969 6.667969 C 16.886719 6.667969 17.101562 6.578125 17.257812 6.421875 C 17.414062 6.265625 17.5 6.054688 17.5 5.832031 C 17.5 5.613281 17.414062 5.398438 17.257812 5.242188 C 17.101562 5.085938 16.886719 5 16.667969 5 Z M 8.332031 4.167969 C 8.332031 3.945312 8.421875 3.734375 8.578125 3.578125 C 8.734375 3.421875 8.945312 3.332031 9.167969 3.332031 L 10.832031 3.332031 C 11.054688 3.332031 11.265625 3.421875 11.421875 3.578125 C 11.578125 3.734375 11.667969 3.945312 11.667969 4.167969 L 11.667969 5 L 8.332031 5 Z M 14.167969 15.832031 C 14.167969 16.054688 14.078125 16.265625 13.921875 16.421875 C 13.765625 16.578125 13.554688 16.667969 13.332031 16.667969 L 6.667969 16.667969 C 6.445312 16.667969 6.234375 16.578125 6.078125 16.421875 C 5.921875 16.265625 5.832031 16.054688 5.832031 15.832031 L 5.832031 6.667969 L 14.167969 6.667969 Z M 11.667969 15 C 11.886719 15 12.101562 14.914062 12.257812 14.757812 C 12.414062 14.601562 12.5 14.386719 12.5 14.167969 L 12.5 9.167969 C 12.5 8.945312 12.414062 8.734375 12.257812 8.578125 C 12.101562 8.421875 11.886719 8.332031 11.667969 8.332031 C 11.445312 8.332031 11.234375 8.421875 11.078125 8.578125 C 10.921875 8.734375 10.832031 8.945312 10.832031 9.167969 L 10.832031 14.167969 C 10.832031 14.386719 10.921875 14.601562 11.078125 14.757812 C 11.234375 14.914062 11.445312 15 11.667969 15 Z M 11.667969 15 "/>
</g>
</svg>
